<svg width="213" height="51" viewBox="0 0 213 51" fill="none" xmlns="http://www.w3.org/2000/svg">
<path id="Coffee-shop" d="M25 29L26.15 29.5C23.5 36.2 16.45 38.8 11.9 38.8C4.5 38.8 0.95 35.5 0.95 26.5C0.95 17.45 5.3 0.499997 18.4 0.499997C23.1 0.499997 26.75 2.35 26.75 7.2C26.75 9.85 25.8 11.8 23.25 11.8C22.45 11.8 21.35 11.6 20.4 10.5C21.6 9.9 22.7 7.8 22.7 5.9C22.7 4.3 21.9 2.85 19.65 2.85C14.15 2.85 9.25 16 9.25 26.2C9.25 30.8 10.45 34 15.25 34C19.15 34 22.7 32.1 25 29ZM37.8535 12.55C42.1535 12.55 44.2535 15.3 44.2535 20.55C44.4535 20.65 44.6535 20.65 44.8035 20.65C47.1035 20.65 50.3535 19.15 52.5035 17.65L52.9535 19C51.0535 21.05 47.7535 22.55 44.1035 23.15C43.3035 32.4 38.3035 38.2 32.1535 38.2C27.5035 38.2 24.1535 36 24.1535 30.3C24.1535 24.55 27.5535 12.55 37.8535 12.55ZM34.1535 33.7C36.6035 33.7 39.1535 29.2 39.9535 23.3C38.9035 23.05 38.6035 22.2 38.6035 21.2C38.6035 19.8 39.2535 18.9 40.1535 18.5C40.0535 16.4 39.5535 15.6 38.2535 15.6C34.7035 15.6 31.6035 24.75 31.6035 29.65C31.6035 32.95 32.2535 33.7 34.1535 33.7ZM42.2762 50.5C39.2262 50.5 36.3762 48.35 36.3762 45.1C36.3762 40.5 40.2762 39.05 45.0262 37.6L51.0262 9.05C52.5262 1.9 56.8262 0.549999 60.1262 0.549999C62.3762 0.549999 64.5262 1.75 65.4762 3.7C67.4762 1.15 70.1262 0.549999 72.3262 0.549999C75.3762 0.549999 78.2262 2.7 78.2262 5.95C78.2262 6.75 78.1762 7.4 78.0762 8H75.7262C75.7762 7.5 75.8262 7.1 75.8262 6.65C75.8262 5.5 74.9262 4.95 73.9262 4.95C72.8262 4.95 71.2762 5.55 70.5262 8.9L69.6262 13H74.6262L74.1762 15H69.2262L63.5762 42C62.0762 49.15 57.7762 50.5 54.4762 50.5C51.6262 50.5 49.8762 49.25 49.0762 47.35C47.1262 49.9 44.4762 50.5 42.2762 50.5ZM57.0262 15L52.5762 36.15L57.7262 35.25L61.9762 15H57.0262ZM50.4262 45.05C50.8762 45.85 52.0262 46.05 53.3262 46.05C54.3762 46.05 55.6262 45.1 56.2762 42.15L57.4762 36.45L52.3262 37.4L51.3762 42C51.1262 43.15 50.7762 44.2 50.4262 45.05ZM63.6262 6.65C63.6262 5.5 62.7262 4.95 61.7262 4.95C60.6262 4.95 59.0762 5.55 58.3262 8.9L57.4262 13H62.3762L63.5262 7.75C63.6262 7.35 63.6262 7.05 63.6262 6.65ZM39.4262 44.4C39.4262 45.1 40.3262 46.05 41.4262 46.05C42.4762 46.05 43.7262 45.1 44.3762 42.15L44.9762 39.25C41.8262 40.3 39.4262 41.7 39.4262 44.4ZM78.9668 29.9C78.9668 33.3 80.1668 34.1 82.5668 34.1C86.5168 34.1 88.9168 31.9 91.4168 29.05H93.1168C90.2668 33.65 86.0168 38.3 79.3668 38.3C74.6668 38.3 71.5668 36 71.5668 30.35C71.5668 24.6 74.8168 12.55 85.0668 12.55C89.5168 12.55 90.5668 14.85 90.5668 17.35C90.5668 23.1 85.0668 27.55 79.0668 27.9C79.0168 28.6 78.9668 29.3 78.9668 29.9ZM86.7168 17.25C86.7168 16 86.4168 15.2 85.4668 15.2C82.9168 15.2 80.4668 20.55 79.4668 25.5C83.3168 25.25 86.7168 21.4 86.7168 17.25ZM98.1063 29.4C98.1063 32.55 99.4563 33.55 101.206 33.55C103.106 33.55 105.506 32.3 107.106 30.9C106.056 36.6 102.456 38.3 98.4563 38.3C93.8063 38.3 90.7062 36 90.7062 30.35C90.7062 24.6 93.9563 12.55 104.206 12.55C108.656 12.55 109.706 14.85 109.706 17.35C109.706 23.15 104.206 27.55 98.2063 27.9C98.1563 28.4 98.1063 28.95 98.1063 29.4ZM105.856 17.25C105.856 16 105.556 15.2 104.606 15.2C102.106 15.2 99.6063 20.75 98.5563 25.5C102.456 25.3 105.856 21.45 105.856 17.25ZM121.567 22.95L120.717 26.9H110.667L111.567 22.95H121.567ZM143.319 29.05H145.419C142.819 32.05 140.069 33.95 137.769 35.3C135.669 37.5 132.469 38.3 129.919 38.3C124.819 38.3 122.619 34.95 122.619 31.9C122.619 29.6 123.919 27.9 125.269 27.25C128.069 22.3 129.869 17.35 131.419 12.45L138.819 11.45C139.419 24.4 139.919 26.35 139.919 29.65C139.919 30.35 139.869 30.95 139.719 31.55C141.069 30.75 142.369 29.85 143.319 29.05ZM128.819 29.05C128.819 30.25 127.919 31.5 126.619 31.5C126.119 31.5 125.519 31.35 125.269 30.85C125.269 33.2 126.119 34.35 128.319 34.35C130.519 34.35 132.669 33.2 132.669 29.7C132.669 27.1 132.219 25.55 131.719 17.85C130.719 21.1 129.319 24.1 127.669 27.3C128.319 27.6 128.819 28.2 128.819 29.05ZM157.711 19.9C157.711 18.25 157.111 17.35 155.861 17.35C153.911 17.35 152.361 20.4 152.061 21.75L148.611 38H141.411L148.661 4L156.061 3L153.361 15.6C155.461 13.2 157.661 12.8 159.211 12.8C162.411 12.8 164.761 14.45 164.761 18.45C164.761 22.5 162.361 28.55 162.361 31.35C162.361 32.6 162.861 33.45 164.361 33.45C166.561 33.45 167.461 31.65 168.561 29.05H170.661C167.861 37.25 164.011 38.3 161.361 38.3C157.011 38.3 155.461 35.5 155.461 32.65C155.461 29.25 157.711 23.1 157.711 19.9ZM181.555 12.55C185.855 12.55 187.955 15.3 187.955 20.55C188.155 20.65 188.355 20.65 188.505 20.65C190.805 20.65 194.055 19.15 196.205 17.65L196.655 19C194.755 21.05 191.455 22.55 187.805 23.15C187.005 32.4 182.005 38.2 175.855 38.2C171.205 38.2 167.855 36 167.855 30.3C167.855 24.55 171.255 12.55 181.555 12.55ZM177.855 33.7C180.305 33.7 182.855 29.2 183.655 23.3C182.605 23.05 182.305 22.2 182.305 21.2C182.305 19.8 182.955 18.9 183.855 18.5C183.755 16.4 183.255 15.6 181.955 15.6C178.405 15.6 175.305 24.75 175.305 29.65C175.305 32.95 175.955 33.7 177.855 33.7ZM194.327 11.15H201.527L200.727 14.9C202.177 13.65 204.077 12.75 206.577 12.75C209.977 12.75 212.677 14.7 212.677 20.65C212.677 27.4 210.077 38.3 200.377 38.3C197.877 38.3 196.677 37.45 196.127 36.5L193.527 48.7L185.977 50.5L194.327 11.15ZM198.827 33.95C204.077 33.95 205.827 25.2 205.827 20.5C205.827 16.65 204.227 16.35 203.327 16.35C202.227 16.35 200.827 17.2 199.877 18.8L196.927 32.8C197.127 33.35 197.677 33.95 198.827 33.95Z" fill="black"/>
</svg>
